<svg width="256" height="36" viewBox="0 0 256 36" fill="none" xmlns="http://www.w3.org/2000/svg">
<path d="M0.76 28V-1.90735e-06H12.28C14.76 -1.90735e-06 16.88 0.399999 18.64 1.2C20.4267 2 21.8 3.14666 22.76 4.64C23.72 6.13333 24.2 7.90667 24.2 9.96C24.2 12.0133 23.72 13.7867 22.76 15.28C21.8 16.7467 20.4267 17.88 18.64 18.68C16.88 19.4533 14.76 19.84 12.28 19.84H3.64L5.96 17.48V28H0.76ZM19.08 28L12 17.84H17.56L24.68 28H19.08ZM5.96 18.04L3.64 15.56H12.04C14.3333 15.56 16.0533 15.0667 17.2 14.08C18.3733 13.0933 18.96 11.72 18.96 9.96C18.96 8.17333 18.3733 6.8 17.2 5.84C16.0533 4.88 14.3333 4.4 12.04 4.4H3.64L5.96 1.84V18.04ZM39.5778 28.28C37.2045 28.28 35.1245 27.8133 33.3378 26.88C31.5778 25.92 30.2045 24.6133 29.2178 22.96C28.2578 21.3067 27.7778 19.4267 27.7778 17.32C27.7778 15.1867 28.2445 13.3067 29.1778 11.68C30.1378 10.0267 31.4445 8.73333 33.0978 7.8C34.7778 6.86667 36.6845 6.4 38.8178 6.4C40.8978 6.4 42.7511 6.85333 44.3778 7.76C46.0045 8.66667 47.2845 9.94667 48.2178 11.6C49.1511 13.2533 49.6178 15.2 49.6178 17.44C49.6178 17.6533 49.6045 17.8933 49.5778 18.16C49.5778 18.4267 49.5645 18.68 49.5378 18.92H31.7378V15.6H46.8978L44.9378 16.64C44.9645 15.4133 44.7111 14.3333 44.1778 13.4C43.6445 12.4667 42.9111 11.7333 41.9778 11.2C41.0711 10.6667 40.0178 10.4 38.8178 10.4C37.5911 10.4 36.5111 10.6667 35.5778 11.2C34.6711 11.7333 33.9511 12.48 33.4178 13.44C32.9111 14.3733 32.6578 15.48 32.6578 16.76V17.56C32.6578 18.84 32.9511 19.9733 33.5378 20.96C34.1245 21.9467 34.9511 22.7067 36.0178 23.24C37.0845 23.7733 38.3111 24.04 39.6978 24.04C40.8978 24.04 41.9778 23.8533 42.9378 23.48C43.8978 23.1067 44.7511 22.52 45.4978 21.72L48.1778 24.8C47.2178 25.92 46.0045 26.7867 44.5378 27.4C43.0978 27.9867 41.4445 28.28 39.5778 28.28ZM66.2606 28.28C64.5273 28.28 62.9406 27.88 61.5006 27.08C60.0873 26.28 58.954 25.08 58.1006 23.48C57.274 21.8533 56.8606 19.8 56.8606 17.32C56.8606 14.8133 57.2606 12.76 58.0606 11.16C58.8873 9.56 60.0073 8.37333 61.4206 7.6C62.834 6.8 64.4473 6.4 66.2606 6.4C68.3673 6.4 70.2206 6.85333 71.8206 7.76C73.4473 8.66667 74.7273 9.93333 75.6606 11.56C76.6206 13.1867 77.1006 15.1067 77.1006 17.32C77.1006 19.5333 76.6206 21.4667 75.6606 23.12C74.7273 24.7467 73.4473 26.0133 71.8206 26.92C70.2206 27.8267 68.3673 28.28 66.2606 28.28ZM54.4206 35.76V6.64H59.1806V11.68L59.0206 17.36L59.4206 23.04V35.76H54.4206ZM65.7006 24C66.9006 24 67.9673 23.7333 68.9006 23.2C69.8606 22.6667 70.6206 21.8933 71.1806 20.88C71.7406 19.8667 72.0206 18.68 72.0206 17.32C72.0206 15.9333 71.7406 14.7467 71.1806 13.76C70.6206 12.7467 69.8606 11.9733 68.9006 11.44C67.9673 10.9067 66.9006 10.64 65.7006 10.64C64.5006 10.64 63.4206 10.9067 62.4606 11.44C61.5006 11.9733 60.7406 12.7467 60.1806 13.76C59.6206 14.7467 59.3406 15.9333 59.3406 17.32C59.3406 18.68 59.6206 19.8667 60.1806 20.88C60.7406 21.8933 61.5006 22.6667 62.4606 23.2C63.4206 23.7333 64.5006 24 65.7006 24ZM91.4425 28.28C89.2558 28.28 87.3092 27.8133 85.6025 26.88C83.8958 25.92 82.5492 24.6133 81.5625 22.96C80.5758 21.3067 80.0825 19.4267 80.0825 17.32C80.0825 15.1867 80.5758 13.3067 81.5625 11.68C82.5492 10.0267 83.8958 8.73333 85.6025 7.8C87.3092 6.86667 89.2558 6.4 91.4425 6.4C93.6558 6.4 95.6158 6.86667 97.3225 7.8C99.0558 8.73333 100.403 10.0133 101.363 11.64C102.349 13.2667 102.843 15.16 102.843 17.32C102.843 19.4267 102.349 21.3067 101.363 22.96C100.403 24.6133 99.0558 25.92 97.3225 26.88C95.6158 27.8133 93.6558 28.28 91.4425 28.28ZM91.4425 24C92.6692 24 93.7625 23.7333 94.7225 23.2C95.6825 22.6667 96.4292 21.8933 96.9625 20.88C97.5225 19.8667 97.8025 18.68 97.8025 17.32C97.8025 15.9333 97.5225 14.7467 96.9625 13.76C96.4292 12.7467 95.6825 11.9733 94.7225 11.44C93.7625 10.9067 92.6825 10.64 91.4825 10.64C90.2558 10.64 89.1625 10.9067 88.2025 11.44C87.2692 11.9733 86.5225 12.7467 85.9625 13.76C85.4025 14.7467 85.1225 15.9333 85.1225 17.32C85.1225 18.68 85.4025 19.8667 85.9625 20.88C86.5225 21.8933 87.2692 22.6667 88.2025 23.2C89.1625 23.7333 90.2425 24 91.4425 24ZM107.624 28V6.64H112.384V12.52L111.824 10.8C112.464 9.36 113.464 8.26667 114.824 7.52C116.21 6.77333 117.93 6.4 119.984 6.4V11.16C119.77 11.1067 119.57 11.08 119.384 11.08C119.197 11.0533 119.01 11.04 118.824 11.04C116.93 11.04 115.424 11.6 114.304 12.72C113.184 13.8133 112.624 15.4533 112.624 17.64V28H107.624ZM133.047 28.28C130.7 28.28 128.887 27.68 127.607 26.48C126.327 25.2533 125.687 23.4533 125.687 21.08V1.92H130.687V20.96C130.687 21.9733 130.94 22.76 131.447 23.32C131.98 23.88 132.713 24.16 133.647 24.16C134.767 24.16 135.7 23.8667 136.447 23.28L137.847 26.84C137.26 27.32 136.54 27.68 135.687 27.92C134.833 28.16 133.953 28.28 133.047 28.28ZM122.167 10.8V6.8H136.407V10.8H122.167ZM153.494 28V-1.90735e-06H158.694V28H153.494ZM171.948 28V4.4H162.668V-1.90735e-06H186.428V4.4H177.148V28H171.948Z" fill="black"/>
<path d="M213.425 28.4C209.585 28.4 206.572 27.32 204.385 25.16C202.225 23 201.145 19.88 201.145 15.8V-1.90735e-06H206.345V15.6C206.345 18.48 206.958 20.5733 208.185 21.88C209.438 23.1867 211.198 23.84 213.465 23.84C215.732 23.84 217.478 23.1867 218.705 21.88C219.932 20.5733 220.545 18.48 220.545 15.6V-1.90735e-06H225.665V15.8C225.665 19.88 224.572 23 222.385 25.16C220.225 27.32 217.238 28.4 213.425 28.4ZM244.308 28.28C242.574 28.28 240.988 27.88 239.548 27.08C238.134 26.28 237.001 25.08 236.148 23.48C235.321 21.8533 234.908 19.8 234.908 17.32C234.908 14.8133 235.308 12.76 236.108 11.16C236.934 9.56 238.054 8.37333 239.467 7.6C240.881 6.8 242.494 6.4 244.308 6.4C246.414 6.4 248.268 6.85333 249.868 7.76C251.494 8.66667 252.774 9.93333 253.708 11.56C254.668 13.1867 255.148 15.1067 255.148 17.32C255.148 19.5333 254.668 21.4667 253.708 23.12C252.774 24.7467 251.494 26.0133 249.868 26.92C248.268 27.8267 246.414 28.28 244.308 28.28ZM232.468 35.76V6.64H237.228V11.68L237.068 17.36L237.468 23.04V35.76H232.468ZM243.748 24C244.948 24 246.014 23.7333 246.948 23.2C247.908 22.6667 248.668 21.8933 249.228 20.88C249.788 19.8667 250.068 18.68 250.068 17.32C250.068 15.9333 249.788 14.7467 249.228 13.76C248.668 12.7467 247.908 11.9733 246.948 11.44C246.014 10.9067 244.948 10.64 243.748 10.64C242.548 10.64 241.468 10.9067 240.508 11.44C239.548 11.9733 238.788 12.7467 238.228 13.76C237.668 14.7467 237.388 15.9333 237.388 17.32C237.388 18.68 237.668 19.8667 238.228 20.88C238.788 21.8933 239.548 22.6667 240.508 23.2C241.468 23.7333 242.548 24 243.748 24Z" fill="#E10600"/>
</svg>
